<svg width="208" height="65" viewBox="0 0 208 65" fill="none" xmlns="http://www.w3.org/2000/svg">
<path d="M83.1159 33.9912L77.2359 19.8312H73.9159L67.9759 33.9912H71.6959L72.7359 31.2112H78.2159L79.3159 33.9912H83.1159ZM77.2759 28.4712H73.7159L75.5159 23.6112L77.2759 28.4712ZM97.7607 19.8312H93.9807L90.7207 29.8712H90.6407L87.3607 19.8312H83.5207L88.8807 33.9912H92.3007L97.7607 19.8312ZM113.308 33.9912L107.428 19.8312H104.108L98.1681 33.9912H101.888L102.928 31.2112H108.408L109.508 33.9912H113.308ZM107.468 28.4712H103.908L105.708 23.6112L107.468 28.4712ZM124.999 33.9912V31.0112H119.518V19.8312H116.078V33.9912H124.999ZM141.606 33.9912L135.726 19.8312H132.406L126.466 33.9912H130.186L131.226 31.2112H136.706L137.806 33.9912H141.606ZM135.766 28.4712H132.206L134.006 23.6112L135.766 28.4712ZM156.025 28.6512V19.8312H152.605V28.3712C152.605 29.8912 151.885 31.2912 149.945 31.2912C148.025 31.2912 147.285 29.8912 147.285 28.3712V19.8312H143.885V28.6512C143.885 32.0512 146.205 34.3712 149.925 34.3712C153.625 34.3712 156.025 32.0512 156.025 28.6512ZM173.27 33.9912V19.8312H169.95L170.03 29.0712H169.97L164.29 19.8312H160.39V33.9912H163.71L163.63 24.7312H163.69L169.39 33.9912H173.27ZM190.251 32.0312L187.871 29.7912C187.271 30.6312 186.211 31.2312 184.871 31.2312C182.511 31.2312 180.851 29.4712 180.851 26.8912C180.851 24.3912 182.551 22.5512 184.931 22.5512C186.011 22.5512 187.151 22.9712 187.791 23.8512L190.111 21.5312C188.931 20.1712 186.791 19.4512 184.811 19.4512C180.491 19.4512 177.131 22.3512 177.131 26.8912C177.131 31.3312 180.391 34.3712 184.751 34.3712C187.131 34.3712 189.011 33.4712 190.251 32.0312ZM205.677 33.9912V19.8312H202.257V25.1912H196.737V19.8312H193.317V33.9912H196.737V28.0712H202.257V33.9912H205.677Z" fill="white"/>
<path d="M29.374 10.7796C31.6123 6.59624 37.61 6.59624 39.8483 10.7796L56.674 42.2267C59.6349 47.7607 53.1061 53.5074 47.9927 49.868L38.0553 42.7954C35.9936 41.328 33.2287 41.328 31.167 42.7954L21.2297 49.868C16.1162 53.5074 9.58735 47.7607 12.5484 42.2267L29.374 10.7796Z" fill="url(#paint0_linear_1596_1450)"/>
<mask id="mask0_1596_1450" style="mask-type:alpha" maskUnits="userSpaceOnUse" x="11" y="7" width="47" height="45">
<path d="M29.374 10.7796C31.6123 6.59624 37.61 6.59624 39.8483 10.7796L56.674 42.2267C59.6349 47.7607 53.1061 53.5074 47.9927 49.868L38.0553 42.7954C35.9936 41.328 33.2287 41.328 31.167 42.7954L21.2297 49.868C16.1162 53.5074 9.58735 47.7607 12.5484 42.2267L29.374 10.7796Z" fill="url(#paint1_linear_1596_1450)"/>
</mask>
<g mask="url(#mask0_1596_1450)">
<path d="M6.10028 25.7744C6.10028 21.3683 8.72307 17.3851 12.7707 15.6443C17.0521 13.8028 22.0288 14.8518 25.2028 18.2646L25.5311 18.6177C30.0183 23.4426 37.6011 23.6176 42.3061 19.0049L43.3694 17.9624C46.7013 14.6958 51.6643 13.7395 55.9716 15.5342C60.3011 17.3381 63.1213 21.5684 63.1213 26.2587V47.1722H6.10028V25.7744Z" fill="url(#paint2_linear_1596_1450)"/>
<path d="M6.10028 32.7534C6.10028 28.3474 8.72307 24.3642 12.7707 22.6233C17.0521 20.7818 22.0288 21.8308 25.2028 25.2436L25.5311 25.5967C30.0183 30.4216 37.6011 30.5967 42.3061 25.9839L43.3694 24.9415C46.7013 21.6748 51.6643 20.7185 55.9716 22.5132C60.3011 24.3172 63.1213 28.5475 63.1213 33.2378V54.1512H6.10028V32.7534Z" fill="url(#paint3_linear_1596_1450)"/>
<path d="M6.10028 39.7329C6.10028 35.3268 8.72307 31.3437 12.7707 29.6028C17.0521 27.7613 22.0288 28.8103 25.2028 32.2231L25.5311 32.5762C30.0183 37.4011 37.6011 37.5761 42.3061 32.9634L43.3694 31.921C46.7013 28.6543 51.6643 27.698 55.9716 29.4927C60.3011 31.2967 63.1213 35.5269 63.1213 40.2173V61.1307H6.10028V39.7329Z" fill="url(#paint4_linear_1596_1450)"/>
</g>
<defs>
<linearGradient id="paint0_linear_1596_1450" x1="71.2343" y1="0.991399" x2="8.31449" y2="73.5062" gradientUnits="userSpaceOnUse">
<stop stop-color="white"/>
<stop offset="1" stop-color="#CECECE"/>
</linearGradient>
<linearGradient id="paint1_linear_1596_1450" x1="71.2343" y1="0.991399" x2="8.31449" y2="73.5062" gradientUnits="userSpaceOnUse">
<stop stop-color="#FF6746"/>
<stop offset="1" stop-color="#FF0546"/>
</linearGradient>
<linearGradient id="paint2_linear_1596_1450" x1="34.6108" y1="18.5132" x2="34.6108" y2="47.1722" gradientUnits="userSpaceOnUse">
<stop stop-color="white"/>
<stop offset="1" stop-color="#EFEFEF"/>
</linearGradient>
<linearGradient id="paint3_linear_1596_1450" x1="34.6108" y1="25.4923" x2="34.6108" y2="54.1512" gradientUnits="userSpaceOnUse">
<stop stop-color="white"/>
<stop offset="1" stop-color="#D9D9D9"/>
</linearGradient>
<linearGradient id="paint4_linear_1596_1450" x1="34.6108" y1="32.4717" x2="34.6108" y2="61.1307" gradientUnits="userSpaceOnUse">
<stop stop-color="white"/>
<stop offset="1" stop-color="#E1E1E1"/>
</linearGradient>
</defs>
</svg>
