<svg width="33" height="29" viewBox="0 0 33 29" fill="none" xmlns="http://www.w3.org/2000/svg">
<g filter="url(#filter0_d)">
<path d="M27.5337 8.84688C27.5011 8.54162 27.463 8.29699 27.4316 8.12265L29.9966 4.26136C30.1579 4.01859 30.1477 3.6998 29.9712 3.46792C29.7947 3.23604 29.4909 3.14228 29.2151 3.23455L25.6481 4.42783C25.4596 4.14567 25.18 3.77349 24.8074 3.39955C24.0527 2.6421 22.8689 1.8335 21.2637 1.8335C19.5996 1.8335 18.3681 2.30092 17.4888 3.06829C16.6185 3.82779 16.1594 4.82325 15.9246 5.76586C15.6901 6.70725 15.6693 7.63369 15.7031 8.31344C15.713 8.51166 15.7277 8.69107 15.7436 8.84634C14.0352 9.21094 12.2475 8.65242 10.4964 7.60944C8.56536 6.45934 6.79525 4.78817 5.4116 3.39955C5.2197 3.20695 4.93212 3.1472 4.67979 3.24749C4.42746 3.34777 4.25863 3.58893 4.25015 3.86117C4.07675 9.43012 5.22076 16.1707 10.39 19.5889C8.21578 20.7693 6.08409 21.3198 3.48485 21.6458C3.18727 21.6832 2.94911 21.9116 2.89848 22.2082C2.84785 22.5049 2.99668 22.7999 3.26491 22.9345C10.2865 26.4579 19.3852 26.2032 24.5303 19.3183C26.6632 16.4643 27.3779 13.6029 27.5565 11.4522C27.6457 10.3781 27.6013 9.4805 27.5337 8.84688Z" fill="white"/>
</g>
<defs>
<filter id="filter0_d" x="0.888672" y="0.833496" width="31.2222" height="27.3333" filterUnits="userSpaceOnUse" color-interpolation-filters="sRGB">
<feFlood flood-opacity="0" result="BackgroundImageFix"/>
<feColorMatrix in="SourceAlpha" type="matrix" values="0 0 0 0 0 0 0 0 0 0 0 0 0 0 0 0 0 0 127 0" result="hardAlpha"/>
<feOffset dy="1"/>
<feGaussianBlur stdDeviation="1"/>
<feColorMatrix type="matrix" values="0 0 0 0 0 0 0 0 0 0 0 0 0 0 0 0 0 0 0.25 0"/>
<feBlend mode="normal" in2="BackgroundImageFix" result="effect1_dropShadow"/>
<feBlend mode="normal" in="SourceGraphic" in2="effect1_dropShadow" result="shape"/>
</filter>
</defs>
</svg>
