<svg width="29" height="25" viewBox="0 0 29 25" fill="none" xmlns="http://www.w3.org/2000/svg">
<path d="M27.3852 10.7566C26.2367 6.81051 24.9415 4.77157 24.9206 4.73499C24.8467 4.64487 23.0164 2.45456 18.6051 0.834473L18.0222 2.42153C20.1208 3.19229 21.6097 4.13257 22.4285 4.74012C19.9839 4.01011 17.0757 3.56301 14.5 3.56301C11.9244 3.56301 9.0162 4.01011 6.57159 4.74012C7.39036 4.13263 8.87924 3.19229 10.9779 2.42153L10.3949 0.834473C5.98371 2.45456 4.15341 4.64487 4.07958 4.73499C4.05867 4.77157 2.76339 6.81051 1.61491 10.7566C0.50803 14.5595 0.0875388 19.9242 0.0722656 20.1393C0.170893 20.2935 2.43932 24.1665 8.62146 24.1665L10.1885 21.8973C8.43288 21.4312 6.75887 20.6795 5.22648 19.6595L6.16333 18.252C8.63549 19.8975 11.5183 20.7674 14.5 20.7674C17.4818 20.7674 20.3646 19.8975 22.8368 18.252L23.7736 19.6595C22.2413 20.6795 20.5672 21.4312 18.8116 21.8973L20.3786 24.1665C26.5608 24.1665 28.8292 20.2935 28.9278 20.1393C28.9126 19.9242 28.4921 14.5595 27.3852 10.7566ZM10.5911 15.1797H8.90038V12.3618H10.5911V15.1797ZM20.0997 15.1797H18.409V12.3618H20.0997V15.1797Z" fill="white"/>
</svg>
