<svg width="35" height="35" viewBox="0 0 35 35" fill="none" xmlns="http://www.w3.org/2000/svg">
<g clip-path="url(#clip0)">
<path d="M32.2073 6.90245L35 4.23079V3.646H25.3254L18.4304 20.8077L10.586 3.646H0.441875V4.23079L3.70417 8.15808C4.02208 8.44829 4.18833 8.87266 4.14604 9.29995V24.7335C4.24667 25.2891 4.06583 25.8608 3.675 26.2647L0 30.7185V31.296H10.4198V30.7112L6.74479 26.2647C6.34667 25.8593 6.15854 25.2979 6.23875 24.7335V11.3839L15.3854 31.3033H16.4485L24.3133 11.3839V27.252C24.3133 27.6706 24.3133 27.7566 24.0392 28.0308L21.21 30.7681V31.3543H34.9358V30.7695L32.2088 28.0993C31.9696 27.9185 31.8456 27.6152 31.8967 27.3206V7.6812C31.8456 7.38516 31.9681 7.08183 32.2073 6.90245V6.90245Z" fill="white"/>
</g>
<defs>
<clipPath id="clip0">
<rect width="35" height="35" fill="white"/>
</clipPath>
</defs>
</svg>
